:FULLY-SPECIFIED
:FORCE-ALL-JOINTS-BE-3DOF
:DEGREES
2242
root -0.748651 13.8153 -16.4771 -169.278 -25.64 169.067
lfemur 11.4457 0.0454449 -15.0567
ltibia 33.4932 -0 0
lfoot -23.9384 36.4747 0.00831743
ltoes -43.6068 0 0
rfemur -71.3817 -22.4496 8.82157
rtibia 73.1383 -0 0
rfoot -5.88283 14.2998 -0.014144
rtoes 3.82332 -0 0
lowerback 9.31847 2.14643 -13.6026
upperback -2.77828 0.808948 -2.0118
thorax -8.51262 0.956694 5.3394
lowerneck 1.05036 -12.0661 -12.4309
upperneck 4.65664 -16.7835 10.3881
head 3.13568 -8.43231 4.40562
lclavicle 3.12168e-14 1.6751e-14 4.26418e-31
lhumerus -69.5208 -18.1753 104.01
lradius 102.06 -0 0
lwrist 61.0385 0 0
lhand -10.7517 61.7848 0.0568847
lfingers 7.12502 -0 0
lthumb 14.9516 135.567 1.20312
rclavicle 3.12168e-14 1.6751e-14 4.26418e-31
rhumerus 49.3225 -9.9374 -59.7855
rradius 16.7911 -0 0
rwrist 34.9906 0 0
rhand -19.9226 -42.7444 -0.000533862
rfingers 7.12502 -0 0
rthumb 6.41452 -72.6274 -0.000478907
2243
root -0.753419 13.8063 -16.5101 -169.068 -25.6005 168.989
lfemur 11.5725 -0.0110044 -15.1325
ltibia 33.1266 -0 0
lfoot -23.8494 36.5315 0.00764677
ltoes -43.8591 0 0
rfemur -71.6828 -22.5531 8.87979
rtibia 73.4311 -0 0
rfoot -6.08593 14.342 -0.0130033
rtoes 3.92142 -0 0
lowerback 9.19296 2.14711 -13.6505
upperback -2.81522 0.816498 -2.04147
thorax -8.48366 0.960688 5.33322
lowerneck 1.02698 -12.0855 -12.4067
upperneck 4.62769 -16.8049 10.4012
head 3.13239 -8.44128 4.40362
lclavicle 3.09035e-14 1.75768e-14 3.92038e-31
lhumerus -69.5261 -18.1987 104.015
lradius 102.035 -0 0
lwrist 61.1274 0 0
lhand -10.8652 61.4809 0.052296
lfingers 7.12502 -0 0
lthumb 14.8298 129.963 1.09089
rclavicle 3.09035e-14 1.75768e-14 3.92038e-31
rhumerus 49.3382 -9.95947 -59.6988
rradius 16.8147 -0 0
rwrist 34.891 0 0
rhand -19.9499 -42.7325 -0.000490819
rfingers 7.12502 -0 0
rthumb 6.38823 -72.6163 -0.000440295
2244
root -0.757993 13.7977 -16.5418 -168.867 -25.5623 168.915
lfemur 11.6943 -0.0650137 -15.2054
ltibia 32.7749 -0 0
lfoot -23.7641 36.5859 0.0069204
ltoes -44.1013 0 0
rfemur -71.9719 -22.6522 8.93626
rtibia 73.7119 -0 0
rfoot -6.28083 14.3826 -0.011768
rtoes 4.01555 -0 0
lowerback 9.07253 2.14766 -13.6965
upperback -2.85067 0.823725 -2.06994
thorax -8.45588 0.964522 5.32729
lowerneck 1.00453 -12.1041 -12.3834
upperneck 4.59991 -16.8254 10.4138
head 3.12924 -8.44988 4.40169
lclavicle 3.06028e-14 1.83692e-14 3.54802e-31
lhumerus -69.5312 -18.221 104.02
lradius 102.011 -0 0
lwrist 61.2128 0 0
lhand -10.9741 61.1892 0.0473266
lfingers 7.12502 -0 0
lthumb 14.7238 124.587 0.972502
rclavicle 3.06028e-14 1.83692e-14 3.54802e-31
rhumerus 49.3533 -9.98068 -59.6157
rradius 16.8373 -0 0
rwrist 34.7955 0 0
rhand -19.976 -42.7211 -0.0004442
rfingers 7.12502 -0 0
rthumb 6.36299 -72.6057 -0.000398475
2245
root -0.762348 13.7895 -16.572 -168.675 -25.5257 168.844
lfemur 11.8103 -0.1163 -15.2749
ltibia 32.4399 -0 0
lfoot -23.6828 36.6378 0.00615332
ltoes -44.3319 0 0
rfemur -72.2476 -22.7463 8.99058
rtibia 73.9794 -0 0
rfoot -6.46642 14.4212 -0.0104634
rtoes 4.10519 -0 0
lowerback 8.95784 2.1481 -13.7402
upperback -2.88444 0.830591 -2.09706
thorax -8.42941 0.968177 5.32165
lowerneck 0.983144 -12.1218 -12.3613
upperneck 4.57345 -16.8449 10.4258
head 3.12624 -8.45807 4.39986
lclavicle 3.03165e-14 1.91238e-14 3.15478e-31
lhumerus -69.5361 -18.2423 104.025
lradius 101.988 -0 0
lwrist 61.294 0 0
lhand -11.0778 60.9115 0.0420791
lfingers 7.12502 -0 0
lthumb 14.6336 119.468 0.851002
rclavicle 3.03165e-14 1.91238e-14 3.15478e-31
rhumerus 49.3676 -10.0009 -59.5365
rradius 16.8588 -0 0
rwrist 34.7046 0 0
rhand -20.0009 -42.7103 -0.000394967
rfingers 7.12502 -0 0
rthumb 6.33896 -72.5956 -0.00035431
2246
root -0.76646 13.7818 -16.6005 -168.494 -25.4909 168.777
lfemur 11.9199 -0.164584 -15.3405
ltibia 32.1237 -0 0
lfoot -23.6061 36.6868 0.00536173
ltoes -44.5495 0 0
rfemur -72.5081 -22.8349 9.04234
rtibia 74.2319 -0 0
rfoot -6.64161 14.4576 -0.00911721
rtoes 4.18981 -0 0
lowerback 8.84958 2.14844 -13.7815
upperback -2.91631 0.837058 -2.12267
thorax -8.40444 0.971629 5.31632
lowerneck 0.962949 -12.1385 -12.3404
upperneck 4.54846 -16.8633 10.4372
head 3.1234 -8.4658 4.39812
lclavicle 3.00462e-14 1.98361e-14 2.74897e-31
lhumerus -69.5406 -18.2625 104.03
lradius 101.967 -0 0
lwrist 61.3707 0 0
lhand -11.1757 60.6494 0.0366644
lfingers 7.12502 -0 0
lthumb 14.5587 114.635 0.729349
rclavicle 3.00462e-14 1.98361e-14 2.74897e-31
rhumerus 49.3811 -10.02 -59.4618
rradius 16.8792 -0 0
rwrist 34.6188 0 0
rhand -20.0244 -42.7 -0.000344161
rfingers 7.12502 -0 0
rthumb 6.31628 -72.5861 -0.000308733
2247
root -0.770301 13.7745 -16.6271 -168.325 -25.4583 168.715
lfemur 12.0223 -0.209586 -15.402
ltibia 31.8283 -0 0
lfoot -23.5345 36.7325 0.00456284
ltoes -44.7529 0 0
rfemur -72.7517 -22.9175 9.09112
rtibia 74.4678 -0 0
rfoot -6.80531 14.4917 -0.00775864
rtoes 4.26888 -0 0
lowerback 8.74842 2.14868 -13.8201
upperback -2.9461 0.843087 -2.14659
thorax -8.3811 0.974857 5.31135
lowerneck 0.944072 -12.1541 -12.3208
upperneck 4.52511 -16.8805 10.4478
head 3.12075 -8.47303 4.39651
lclavicle 2.97936e-14 2.05017e-14 2.33941e-31
lhumerus -69.5449 -18.2813 104.035
lradius 101.946 -0 0
lwrist 61.4424 0 0
lhand -11.2671 60.4044 0.0312004
lfingers 7.12502 -0 0
lthumb 14.4982 110.12 0.610347
rclavicle 2.97936e-14 2.05017e-14 2.33941e-31
rhumerus 49.3937 -10.0379 -59.392
rradius 16.8982 -0 0
rwrist 34.5385 0 0
rhand -20.0464 -42.6904 -0.000292885
rfingers 7.12502 -0 0
rthumb 6.29509 -72.5772 -0.000262736
2248
root -0.773847 13.7679 -16.6516 -168.169 -25.4281 168.658
lfemur 12.1169 -0.25103 -15.4588
ltibia 31.5555 -0 0
lfoot -23.4683 36.7747 0.00377459
ltoes -44.9407 0 0
rfemur -72.9768 -22.9936 9.13652
rtibia 74.6856 -0 0
rfoot -6.95639 14.5231 -0.0064185
rtoes 4.34187 -0 0
lowerback 8.65505 2.14884 -13.8558
upperback -2.97359 0.848642 -2.16869
thorax -8.35955 0.977838 5.30676
lowerneck 0.92664 -12.1685 -12.3028
upperneck 4.50354 -16.8964 10.4576
head 3.11831 -8.4797 4.39501
lclavicle 2.95605e-14 2.11161e-14 1.93529e-31
lhumerus -69.5489 -18.2986 104.039
lradius 101.928 -0 0
lwrist 61.5086 0 0
lhand -11.3515 60.1783 0.0258095
lfingers 7.12502 -0 0
lthumb 14.4508 105.952 0.496577
rclavicle 2.95605e-14 2.11161e-14 1.93529e-31
rhumerus 49.4053 -10.0544 -59.3275
rradius 16.9157 -0 0
rwrist 34.4645 0 0
rhand -20.0666 -42.6816 -0.000242291
rfingers 7.12502 -0 0
rthumb 6.27552 -72.569 -0.00021735
